<?xml version="1.0" encoding="iso-8859-1"?>
<!-- Generator: Adobe Illustrator 19.0.0, SVG Export Plug-In . SVG Version: 6.00 Build 0)  -->
<svg version="1.1" id="Layer_1" xmlns="http://www.w3.org/2000/svg" xmlns:xlink="http://www.w3.org/1999/xlink" x="0px" y="0px"
	 viewBox="0 0 512 512" style="enable-background:new 0 0 512 512;" xml:space="preserve">
<g>
	<g>
		<path d="M458.268,86.857H37.732C17.554,86.857,0,102.938,0,123.116v246.83c0,20.17,17.545,36.911,37.705,36.911h320.009
			c5.054,0,9.143-4.089,9.143-9.143c0-5.054-4.089-9.143-9.143-9.143H37.705c-10.08,0-19.42-8.536-19.42-18.625v-246.83
			c0-10.089,9.357-17.973,19.446-17.973h420.536c10.089,0,17.161,7.884,17.161,17.973V263c0,5.053,4.089,9.143,9.143,9.143
			c5.053,0,9.143-4.089,9.143-9.143V123.116C493.714,102.938,478.446,86.857,458.268,86.857z"/>
	</g>
</g>
<g>
	<g>
		<path d="M504,324.571h-37.714V287.67c0-5.054-2.946-8.813-8-8.813h-36.571c-5.053,0-10.286,3.759-10.286,8.813v36.902H376
			c-5.053,0-10.286,3.759-10.286,8.813v36.571c0,5.053,5.232,9.473,10.286,9.473h35.429v36.241c0,5.053,5.232,9.473,10.286,9.473
			h36.571c5.054,0,8-4.42,8-9.473v-36.241H504c5.054,0,8-4.42,8-9.473v-36.571C512,328.33,509.054,324.571,504,324.571z
			 M493.714,361.143h-35.429c-5.053,0-10.286,3.759-10.286,8.813v36.902h-18.286v-36.902c0-5.054-2.946-8.813-8-8.813H384v-18.286
			h37.714c5.054,0,8-4.42,8-9.473v-36.241H448v36.241c0,5.054,5.232,9.473,10.286,9.473h35.429V361.143z"/>
	</g>
</g>
<g>
	<g>
		<path d="M344.652,239.036l-137.125-96c-2.795-1.964-7.009-2.205-10.036-0.616c-3.027,1.571-5.491,4.696-5.491,8.107v192
			c0,3.411,2.464,6.536,5.491,8.107c1.331,0.696,3.063,1.036,4.509,1.036c1.839,0,3.821-0.554,5.384-1.652l137.214-96
			c2.446-1.714,3.938-4.509,3.938-7.491S347.098,240.75,344.652,239.036z M210.286,324.964V168.089l112.054,78.438L210.286,324.964z
			"/>
	</g>
</g>
<g>
</g>
<g>
</g>
<g>
</g>
<g>
</g>
<g>
</g>
<g>
</g>
<g>
</g>
<g>
</g>
<g>
</g>
<g>
</g>
<g>
</g>
<g>
</g>
<g>
</g>
<g>
</g>
<g>
</g>
</svg>
